<svg width="30" height="30" viewBox="0 0 50 50"  xmlns="http://www.w3.org/2000/svg">
<path d="M39.0208 11.2708L36.3542 13.3542L25 21.7917L13.6458 13.2708L10.9792 11.1875C10.3509 10.6678 9.58406 10.3438 8.77352 10.2557C7.96297 10.1676 7.14439 10.3193 6.41918 10.6918C5.69397 11.0644 5.09401 11.6416 4.69362 12.3518C4.29324 13.0621 4.11002 13.8741 4.16666 14.6875V38.8333C4.16666 39.5848 4.46518 40.3054 4.99653 40.8368C5.52788 41.3682 6.24855 41.6667 7 41.6667H13.6458V25.5833L25 34.1042L36.3542 25.5833V41.6667H43C43.7514 41.6667 44.4721 41.3682 45.0035 40.8368C45.5348 40.3054 45.8333 39.5848 45.8333 38.8333V14.6875C45.8724 13.8812 45.6765 13.0808 45.2693 12.3838C44.8621 11.6867 44.2611 11.123 43.5395 10.7611C42.8179 10.3992 42.0067 10.2547 41.2045 10.3452C40.4023 10.4357 39.6437 10.7573 39.0208 11.2708Z" />
</svg>
