<svg width="69" height="85" viewBox="0 0 69 85" fill="none" xmlns="http://www.w3.org/2000/svg">
<path d="M4.8 34.904C4.37333 34.904 4.05333 34.936 3.84 35C3.648 35.0427 3.47733 35.1387 3.328 35.288C3.2 35.416 3.08267 35.5973 2.976 35.832C2.89067 36.0453 2.848 36.248 2.848 36.44L1.088 36.408C1.13067 35.4053 1.45067 34.6053 2.048 34.008C2.368 33.7093 2.74133 33.496 3.168 33.368C3.616 33.2187 4.17067 33.1333 4.832 33.112H18.816V34.904H6.72V42.52H14.976V44.312H6.72V53.208H18.816V55H4.8V34.904Z" fill="white"/>
<path d="M48.8781 38.0759L45.1975 38.8156C44.9353 38.8682 44.6633 38.7505 44.593 38.5538C44.5228 38.3572 44.6798 38.1531 44.942 38.1005L48.6226 37.3608C48.8848 37.3081 49.1568 37.4259 49.2271 37.6225C49.2974 37.8192 49.1403 38.0232 48.8781 38.0759ZM47.1739 29.5928C47.141 29.9293 46.8872 30.1189 46.4932 30.1141C46.1009 30.1094 45.8153 29.9077 45.8248 29.6007C45.8339 29.3019 46.0837 29.1056 46.5086 29.1091C46.9332 29.1126 47.1436 29.3007 47.1739 29.5928ZM51.8925 28.4587C50.4283 26.645 47.5283 25.7638 44.8341 26.3541C42.4764 26.8708 40.9391 28.0384 40.3801 29.8341C39.8268 31.6114 40.5155 33.1401 42.2584 34.4204C42.6671 34.7206 43.043 35.0843 43.2734 35.4724C43.5044 35.8614 43.5785 35.9831 44.1412 35.8809C44.9227 35.7391 45.6937 35.5649 46.475 35.4226C46.8755 35.3496 47.0277 35.1818 47.0251 34.879C47.0144 33.6567 47.018 32.4344 47.0239 31.2121C47.0252 30.9354 46.9093 30.7076 46.5123 30.7007C46.1105 30.6937 45.9875 30.9139 45.9909 31.1959C46.0002 31.9884 45.9937 32.7809 45.9936 33.5734C45.9936 34.8482 45.9936 34.8482 44.3223 35.0314C43.6869 34.4854 43.1083 33.9945 42.5389 33.4977C40.4956 31.7145 40.8693 29.0785 43.4195 27.7132C45.2517 26.7323 47.2199 26.6778 49.1822 27.5059C51.0043 28.275 51.9955 29.8594 51.7328 31.392C51.5573 32.4159 50.9054 33.2332 49.9385 33.9358C49.355 34.3598 48.8233 34.8163 48.6319 35.4294C48.5423 35.7161 48.328 35.8584 47.9576 35.9268C48.0268 35.8786 43.9653 36.7321 43.9653 36.7321C43.7084 36.7837 43.5545 36.9836 43.6234 37.1763L43.6339 37.2061C43.7028 37.3988 43.9693 37.5142 44.2263 37.4626C44.2263 37.4626 48.8864 36.5234 48.9475 36.5104C49.3791 36.4211 49.614 36.1907 49.6238 35.8618C49.6385 35.3708 49.923 34.9886 50.3859 34.6624C50.6337 34.4877 50.8804 34.3115 51.1136 34.1261C53.0384 32.595 53.3561 30.2718 51.8925 28.4587Z" fill="white"/>
<path d="M16.656 66.448C12.6027 66.448 9.616 65.3173 7.696 63.056C5.81867 60.7947 4.83733 58.0213 4.752 54.736L8.4 55.056C8.4 57.4453 9.12533 59.344 10.576 60.752C12.0267 62.16 14.1173 62.864 16.848 62.864C19.9627 62.864 22.16 61.9893 23.44 60.24C24.72 58.448 25.36 56.2933 25.36 53.776V26.448C24.464 27.0027 23.2907 27.28 21.84 27.28C20.816 27.28 19.92 27.1947 19.152 27.024C18.4267 26.8107 17.5307 26.4693 16.464 26C15.6107 25.6587 14.928 25.4027 14.416 25.232C13.904 25.0613 13.3707 24.976 12.816 24.976C12.0907 24.976 11.3653 25.104 10.64 25.36C9.91467 25.616 8.95467 26 7.76 26.512L6.16 23.312C8.03733 22.544 9.40267 22.0533 10.256 21.84C11.1093 21.584 11.9627 21.456 12.816 21.456C13.4133 21.456 14.2453 21.6053 15.312 21.904C16.4213 22.16 17.5093 22.5227 18.576 22.992C19.7707 23.504 20.9013 23.76 21.968 23.76C22.5227 23.76 23.2267 23.5467 24.08 23.12C24.976 22.6507 25.424 22.288 25.424 22.032H29.2V53.968C29.2 57.5093 28.176 60.4747 26.128 62.864C24.08 65.2533 20.9227 66.448 16.656 66.448Z" fill="white"/>
<path d="M32.6 21.808C31.7467 21.808 31.1067 21.872 30.68 22C30.296 22.0853 29.9547 22.2773 29.656 22.576C29.4 22.832 29.1653 23.1947 28.952 23.664C28.7813 24.0907 28.696 24.496 28.696 24.88L25.176 24.816C25.2613 22.8107 25.9013 21.2107 27.096 20.016C27.736 19.4187 28.4827 18.992 29.336 18.736C30.232 18.4373 31.3413 18.2667 32.664 18.224H46.936C48.8133 18.224 50.52 18.5867 52.056 19.312C54.1467 20.336 55.8107 21.9573 57.048 24.176C58.328 26.352 58.968 28.784 58.968 31.472C58.968 33.6907 58.52 35.7173 57.624 37.552C56.7707 39.344 55.5547 40.7733 53.976 41.84C52.44 42.9067 50.6907 43.44 48.728 43.44L47.128 43.504L47.96 43.76C48.3013 43.8453 48.728 44.08 49.24 44.464C49.752 44.848 50.136 45.2107 50.392 45.552L59.672 58.096C60.184 58.7787 60.7387 59.12 61.336 59.12C62.1467 59.12 62.7867 58.736 63.256 57.968L66.264 60.144C65.752 60.912 65.048 61.5307 64.152 62C63.2987 62.4267 62.3813 62.64 61.4 62.64C59.48 62.64 57.9013 61.808 56.664 60.144L49.048 49.648C47.8533 48.0267 46.6587 46.7893 45.464 45.936C44.312 45.0827 42.6267 44.5493 40.408 44.336V40.752H45.976C48.792 40.752 51.0107 39.92 52.632 38.256C54.296 36.592 55.128 34.3307 55.128 31.472C55.128 28.6133 54.3387 26.288 52.76 24.496C51.1813 22.704 49.1547 21.808 46.68 21.808H36.44V62H32.6V21.808Z" fill="white"/>
</svg>
